<mxfile host="65bd71144e">
    <diagram id="srhE5D7gQbnfxxKPSpZm" name="Page-1">
        <mxGraphModel dx="1585" dy="1653" grid="1" gridSize="10" guides="1" tooltips="1" connect="1" arrows="1" fold="1" page="1" pageScale="1" pageWidth="850" pageHeight="1100" math="0" shadow="0">
            <root>
                <mxCell id="0"/>
                <mxCell id="1" parent="0"/>
                <mxCell id="22" style="edgeStyle=none;html=1;entryX=0;entryY=0.5;entryDx=0;entryDy=0;endArrow=none;endFill=0;strokeColor=#FFF2CC;" parent="1" source="3" target="6" edge="1">
                    <mxGeometry relative="1" as="geometry"/>
                </mxCell>
                <mxCell id="25" style="edgeStyle=none;html=1;endArrow=none;endFill=0;strokeColor=#FFF2CC;" parent="1" source="3" target="5" edge="1">
                    <mxGeometry relative="1" as="geometry">
                        <Array as="points">
                            <mxPoint x="300" y="630"/>
                        </Array>
                    </mxGeometry>
                </mxCell>
                <mxCell id="3" value="Front of&lt;br&gt;Mansion" style="rounded=1;whiteSpace=wrap;html=1;fillStyle=solid;fillColor=#D5E8D4;strokeColor=none;fontColor=#4D9900;shadow=1;" parent="1" vertex="1">
                    <mxGeometry x="240" y="640" width="120" height="60" as="geometry"/>
                </mxCell>
                <mxCell id="33" style="edgeStyle=none;html=1;endArrow=none;endFill=0;strokeColor=#FFF2CC;" parent="1" source="5" target="32" edge="1">
                    <mxGeometry relative="1" as="geometry"/>
                </mxCell>
                <mxCell id="34" style="edgeStyle=none;html=1;endArrow=none;endFill=0;strokeColor=#FFF2CC;" parent="1" source="5" target="31" edge="1">
                    <mxGeometry relative="1" as="geometry"/>
                </mxCell>
                <mxCell id="5" value="Grand&lt;br&gt;Entrance Hall" style="rounded=1;whiteSpace=wrap;html=1;fillStyle=solid;fillColor=#fff2cc;strokeColor=none;fontColor=#B46504;shadow=1;" parent="1" vertex="1">
                    <mxGeometry x="240" y="560" width="120" height="60" as="geometry"/>
                </mxCell>
                <mxCell id="23" value="" style="edgeStyle=none;html=1;endArrow=none;endFill=0;strokeColor=#FFF2CC;" parent="1" source="6" target="8" edge="1">
                    <mxGeometry relative="1" as="geometry"/>
                </mxCell>
                <mxCell id="24" style="edgeStyle=none;html=1;entryX=0.5;entryY=0;entryDx=0;entryDy=0;endArrow=none;endFill=0;strokeColor=#FFF2CC;" parent="1" source="6" target="7" edge="1">
                    <mxGeometry relative="1" as="geometry"/>
                </mxCell>
                <mxCell id="6" value="Greenhouse" style="rounded=1;whiteSpace=wrap;html=1;fillStyle=solid;fillColor=#fff2cc;strokeColor=none;fontColor=#B46504;shadow=1;" parent="1" vertex="1">
                    <mxGeometry x="660" y="640" width="120" height="60" as="geometry"/>
                </mxCell>
                <mxCell id="7" value="Inside the Greenhouse" style="rounded=1;whiteSpace=wrap;html=1;fillStyle=solid;fillColor=#fff2cc;strokeColor=none;fontColor=#B46504;shadow=1;" parent="1" vertex="1">
                    <mxGeometry x="660" y="720" width="120" height="60" as="geometry"/>
                </mxCell>
                <mxCell id="27" style="edgeStyle=none;html=1;entryX=0.5;entryY=1;entryDx=0;entryDy=0;endArrow=none;endFill=0;strokeColor=#FFF2CC;" parent="1" source="8" target="9" edge="1">
                    <mxGeometry relative="1" as="geometry"/>
                </mxCell>
                <mxCell id="89" style="edgeStyle=none;html=1;entryX=0.5;entryY=0;entryDx=0;entryDy=0;endArrow=none;endFill=0;strokeColor=#FFF2CC;" parent="1" source="8" target="82" edge="1">
                    <mxGeometry relative="1" as="geometry"/>
                </mxCell>
                <mxCell id="8" value="Stables" style="rounded=1;whiteSpace=wrap;html=1;fillStyle=solid;fillColor=#fff2cc;strokeColor=none;fontColor=#B46504;shadow=1;" parent="1" vertex="1">
                    <mxGeometry x="940" y="640" width="120" height="60" as="geometry"/>
                </mxCell>
                <mxCell id="72" style="edgeStyle=none;html=1;entryX=1;entryY=0.5;entryDx=0;entryDy=0;endArrow=none;endFill=0;strokeColor=#FFF2CC;" parent="1" source="9" target="70" edge="1">
                    <mxGeometry relative="1" as="geometry"/>
                </mxCell>
                <mxCell id="9" value="Holding Pens" style="rounded=1;whiteSpace=wrap;html=1;fillStyle=solid;fillColor=#fff2cc;strokeColor=none;fontColor=#B46504;shadow=1;" parent="1" vertex="1">
                    <mxGeometry x="940" y="320" width="120" height="60" as="geometry"/>
                </mxCell>
                <mxCell id="28" style="edgeStyle=none;html=1;endArrow=none;endFill=0;strokeColor=#FFF2CC;" parent="1" source="11" target="12" edge="1">
                    <mxGeometry relative="1" as="geometry"/>
                </mxCell>
                <mxCell id="29" style="edgeStyle=none;html=1;entryX=1;entryY=0.5;entryDx=0;entryDy=0;endArrow=none;endFill=0;strokeColor=#FFF2CC;" parent="1" source="11" target="13" edge="1">
                    <mxGeometry relative="1" as="geometry"/>
                </mxCell>
                <mxCell id="11" value="Chamber of Summoning" style="rounded=1;whiteSpace=wrap;html=1;fillStyle=solid;fillColor=#fff2cc;strokeColor=none;fontColor=#B46504;shadow=1;" parent="1" vertex="1">
                    <mxGeometry x="240" y="320" width="120" height="60" as="geometry"/>
                </mxCell>
                <mxCell id="53" style="edgeStyle=none;html=1;entryX=0;entryY=0.5;entryDx=0;entryDy=0;endArrow=none;endFill=0;strokeColor=#FFF2CC;" parent="1" source="12" target="52" edge="1">
                    <mxGeometry relative="1" as="geometry"/>
                </mxCell>
                <mxCell id="12" value="Outer Sanctum" style="rounded=1;whiteSpace=wrap;html=1;fillStyle=solid;fillColor=#fff2cc;strokeColor=none;fontColor=#B46504;shadow=1;" parent="1" vertex="1">
                    <mxGeometry x="240" y="240" width="120" height="60" as="geometry"/>
                </mxCell>
                <mxCell id="42" style="edgeStyle=none;html=1;endArrow=none;endFill=0;strokeColor=#FFF2CC;" parent="1" source="13" target="41" edge="1">
                    <mxGeometry relative="1" as="geometry"/>
                </mxCell>
                <mxCell id="81" style="edgeStyle=none;html=1;entryX=1;entryY=0.5;entryDx=0;entryDy=0;endArrow=none;endFill=0;strokeColor=#FFF2CC;" parent="1" source="13" target="80" edge="1">
                    <mxGeometry relative="1" as="geometry"/>
                </mxCell>
                <mxCell id="13" value="Study" style="rounded=1;whiteSpace=wrap;html=1;fillStyle=solid;fillColor=#fff2cc;strokeColor=none;fontColor=#B46504;shadow=1;" parent="1" vertex="1">
                    <mxGeometry x="100" y="320" width="120" height="60" as="geometry"/>
                </mxCell>
                <mxCell id="18" style="edgeStyle=none;html=1;entryX=0;entryY=0.5;entryDx=0;entryDy=0;endArrow=none;endFill=0;strokeColor=#FFF2CC;" parent="1" source="14" target="16" edge="1">
                    <mxGeometry relative="1" as="geometry"/>
                </mxCell>
                <mxCell id="19" style="edgeStyle=none;html=1;entryX=0.5;entryY=1;entryDx=0;entryDy=0;endArrow=none;endFill=0;strokeColor=#FFF2CC;" parent="1" source="14" target="11" edge="1">
                    <mxGeometry relative="1" as="geometry"/>
                </mxCell>
                <mxCell id="20" style="edgeStyle=none;html=1;entryX=0.5;entryY=0;entryDx=0;entryDy=0;endArrow=none;endFill=0;strokeColor=#FFF2CC;" parent="1" source="14" target="15" edge="1">
                    <mxGeometry relative="1" as="geometry"/>
                </mxCell>
                <mxCell id="14" value="Conservatory" style="rounded=1;whiteSpace=wrap;html=1;fillStyle=solid;fillColor=#fff2cc;strokeColor=none;fontColor=#B46504;shadow=1;" parent="1" vertex="1">
                    <mxGeometry x="240" y="400" width="120" height="60" as="geometry"/>
                </mxCell>
                <mxCell id="21" style="edgeStyle=none;html=1;endArrow=none;endFill=0;strokeColor=#FFF2CC;" parent="1" source="15" target="17" edge="1">
                    <mxGeometry relative="1" as="geometry"/>
                </mxCell>
                <mxCell id="30" style="edgeStyle=none;html=1;entryX=0.5;entryY=0;entryDx=0;entryDy=0;endArrow=none;endFill=0;strokeColor=#FFF2CC;" parent="1" source="15" target="5" edge="1">
                    <mxGeometry relative="1" as="geometry"/>
                </mxCell>
                <mxCell id="15" value="Hall of&lt;br&gt;Chess" style="rounded=1;whiteSpace=wrap;html=1;fillStyle=solid;fillColor=#fff2cc;strokeColor=none;fontColor=#B46504;shadow=1;" parent="1" vertex="1">
                    <mxGeometry x="240" y="480" width="120" height="60" as="geometry"/>
                </mxCell>
                <mxCell id="64" style="edgeStyle=none;html=1;entryX=0;entryY=0.5;entryDx=0;entryDy=0;endArrow=none;endFill=0;strokeColor=#FFF2CC;" parent="1" source="16" target="63" edge="1">
                    <mxGeometry relative="1" as="geometry"/>
                </mxCell>
                <mxCell id="16" value="Sleeping&lt;br&gt;Chamber" style="rounded=1;whiteSpace=wrap;html=1;fillStyle=solid;fillColor=#fff2cc;strokeColor=none;fontColor=#B46504;shadow=1;" parent="1" vertex="1">
                    <mxGeometry x="380" y="400" width="120" height="60" as="geometry"/>
                </mxCell>
                <mxCell id="17" value="Cloud Room" style="rounded=1;whiteSpace=wrap;html=1;fillStyle=solid;fillColor=#fff2cc;strokeColor=none;fontColor=#B46504;shadow=1;" parent="1" vertex="1">
                    <mxGeometry x="380" y="480" width="120" height="60" as="geometry"/>
                </mxCell>
                <mxCell id="36" style="edgeStyle=none;html=1;endArrow=none;endFill=0;strokeColor=#FFF2CC;" parent="1" source="31" target="35" edge="1">
                    <mxGeometry relative="1" as="geometry"/>
                </mxCell>
                <mxCell id="31" value="Gambling Room" style="rounded=1;whiteSpace=wrap;html=1;fillStyle=solid;fillColor=#fff2cc;strokeColor=none;fontColor=#B46504;shadow=1;" parent="1" vertex="1">
                    <mxGeometry x="100" y="560" width="120" height="60" as="geometry"/>
                </mxCell>
                <mxCell id="75" style="edgeStyle=none;html=1;entryX=0;entryY=0.5;entryDx=0;entryDy=0;endArrow=none;endFill=0;strokeColor=#FFF2CC;" parent="1" source="32" target="74" edge="1">
                    <mxGeometry relative="1" as="geometry"/>
                </mxCell>
                <mxCell id="32" value="Plant Atrium" style="rounded=1;whiteSpace=wrap;html=1;fillStyle=solid;fillColor=#fff2cc;strokeColor=none;fontColor=#B46504;shadow=1;" parent="1" vertex="1">
                    <mxGeometry x="380" y="560" width="120" height="60" as="geometry"/>
                </mxCell>
                <mxCell id="37" style="edgeStyle=none;html=1;entryX=0;entryY=0.5;entryDx=0;entryDy=0;endArrow=none;endFill=0;strokeColor=#FFF2CC;" parent="1" source="35" target="15" edge="1">
                    <mxGeometry relative="1" as="geometry"/>
                </mxCell>
                <mxCell id="39" style="edgeStyle=none;html=1;endArrow=none;endFill=0;strokeColor=#FFF2CC;" parent="1" source="35" target="38" edge="1">
                    <mxGeometry relative="1" as="geometry"/>
                </mxCell>
                <mxCell id="47" style="edgeStyle=none;html=1;endArrow=none;endFill=0;strokeColor=#FFFFFF;" parent="1" source="35" target="46" edge="1">
                    <mxGeometry relative="1" as="geometry"/>
                </mxCell>
                <mxCell id="35" value="Dining Room" style="rounded=1;whiteSpace=wrap;html=1;fillStyle=solid;fillColor=#fff2cc;strokeColor=none;fontColor=#B46504;shadow=1;" parent="1" vertex="1">
                    <mxGeometry x="100" y="480" width="120" height="60" as="geometry"/>
                </mxCell>
                <mxCell id="40" style="edgeStyle=none;html=1;endArrow=none;endFill=0;strokeColor=#FFF2CC;" parent="1" source="38" target="13" edge="1">
                    <mxGeometry relative="1" as="geometry"/>
                </mxCell>
                <mxCell id="38" value="Library" style="rounded=1;whiteSpace=wrap;html=1;fillStyle=solid;fillColor=#fff2cc;strokeColor=none;fontColor=#B46504;shadow=1;" parent="1" vertex="1">
                    <mxGeometry x="100" y="400" width="120" height="60" as="geometry"/>
                </mxCell>
                <mxCell id="43" style="edgeStyle=none;html=1;endArrow=none;endFill=0;strokeColor=#FFF2CC;" parent="1" source="41" target="12" edge="1">
                    <mxGeometry relative="1" as="geometry"/>
                </mxCell>
                <mxCell id="45" style="edgeStyle=none;html=1;entryX=0.5;entryY=0.833;entryDx=0;entryDy=0;entryPerimeter=0;endArrow=none;endFill=0;strokeColor=#FFF2CC;" parent="1" source="41" target="44" edge="1">
                    <mxGeometry relative="1" as="geometry"/>
                </mxCell>
                <mxCell id="86" style="edgeStyle=none;html=1;entryX=1;entryY=0.5;entryDx=0;entryDy=0;endArrow=none;endFill=0;strokeColor=#FFF2CC;" parent="1" source="41" target="85" edge="1">
                    <mxGeometry relative="1" as="geometry"/>
                </mxCell>
                <mxCell id="41" value="Laboratory" style="rounded=1;whiteSpace=wrap;html=1;fillStyle=solid;fillColor=#fff2cc;strokeColor=none;fontColor=#B46504;shadow=1;" parent="1" vertex="1">
                    <mxGeometry x="100" y="240" width="120" height="60" as="geometry"/>
                </mxCell>
                <mxCell id="44" value="Observatory" style="rounded=1;whiteSpace=wrap;html=1;fillStyle=solid;fillColor=#fff2cc;strokeColor=none;fontColor=#B46504;shadow=1;" parent="1" vertex="1">
                    <mxGeometry x="100" y="160" width="120" height="60" as="geometry"/>
                </mxCell>
                <mxCell id="51" style="edgeStyle=none;html=1;endArrow=none;endFill=0;strokeColor=#FFF2CC;" parent="1" source="46" target="50" edge="1">
                    <mxGeometry relative="1" as="geometry"/>
                </mxCell>
                <mxCell id="46" value="Kitchen" style="rounded=1;whiteSpace=wrap;html=1;fillStyle=solid;fillColor=#fff2cc;strokeColor=none;fontColor=#B46504;shadow=1;" parent="1" vertex="1">
                    <mxGeometry x="-40" y="480" width="120" height="60" as="geometry"/>
                </mxCell>
                <mxCell id="49" style="edgeStyle=none;html=1;endArrow=none;endFill=0;strokeColor=#FFF2CC;" parent="1" source="48" target="46" edge="1">
                    <mxGeometry relative="1" as="geometry"/>
                </mxCell>
                <mxCell id="48" value="Servants'&lt;br&gt;Quarters" style="rounded=1;whiteSpace=wrap;html=1;fillStyle=solid;fillColor=#fff2cc;strokeColor=none;fontColor=#B46504;shadow=1;" parent="1" vertex="1">
                    <mxGeometry x="-40" y="400" width="120" height="60" as="geometry"/>
                </mxCell>
                <mxCell id="79" style="edgeStyle=none;html=1;entryX=0.5;entryY=0;entryDx=0;entryDy=0;endArrow=none;endFill=0;strokeColor=#FFFFFF;" parent="1" source="50" target="78" edge="1">
                    <mxGeometry relative="1" as="geometry"/>
                </mxCell>
                <mxCell id="50" value="Ethereal Mirror" style="rounded=1;whiteSpace=wrap;html=1;fillStyle=solid;fillColor=#fff2cc;strokeColor=none;fontColor=#B46504;shadow=1;" parent="1" vertex="1">
                    <mxGeometry x="-40" y="560" width="120" height="60" as="geometry"/>
                </mxCell>
                <mxCell id="55" style="edgeStyle=none;html=1;entryX=0;entryY=0.5;entryDx=0;entryDy=0;endArrow=none;endFill=0;strokeColor=#FFF2CC;" parent="1" source="52" target="54" edge="1">
                    <mxGeometry relative="1" as="geometry"/>
                </mxCell>
                <mxCell id="52" value="Inner Sanctum" style="rounded=1;whiteSpace=wrap;html=1;fillStyle=solid;fillColor=#fff2cc;strokeColor=none;fontColor=#B46504;shadow=1;" parent="1" vertex="1">
                    <mxGeometry x="380" y="240" width="120" height="60" as="geometry"/>
                </mxCell>
                <mxCell id="54" value="Treasure Room" style="rounded=1;whiteSpace=wrap;html=1;fillStyle=solid;fillColor=#fff2cc;strokeColor=none;fontColor=#B46504;shadow=1;" parent="1" vertex="1">
                    <mxGeometry x="520" y="240" width="120" height="60" as="geometry"/>
                </mxCell>
                <mxCell id="59" style="edgeStyle=none;html=1;entryX=1;entryY=0.5;entryDx=0;entryDy=0;endArrow=none;endFill=0;strokeColor=#FFF2CC;" parent="1" source="57" target="17" edge="1">
                    <mxGeometry relative="1" as="geometry"/>
                </mxCell>
                <mxCell id="57" value="Dungeon" style="rounded=1;whiteSpace=wrap;html=1;fillStyle=solid;fillColor=#fff2cc;strokeColor=none;fontColor=#B46504;shadow=1;" parent="1" vertex="1">
                    <mxGeometry x="800" y="480" width="120" height="60" as="geometry"/>
                </mxCell>
                <mxCell id="60" value="Mortacion's Altar Room" style="rounded=1;whiteSpace=wrap;html=1;fillStyle=solid;fillColor=#fff2cc;strokeColor=none;fontColor=#B46504;shadow=1;" parent="1" vertex="1">
                    <mxGeometry x="380" y="80" width="120" height="60" as="geometry"/>
                </mxCell>
                <mxCell id="62" style="edgeStyle=none;html=1;entryX=0.5;entryY=0;entryDx=0;entryDy=0;endArrow=none;endFill=0;strokeColor=#FFF2CC;" parent="1" source="61" target="60" edge="1">
                    <mxGeometry relative="1" as="geometry"/>
                </mxCell>
                <mxCell id="61" value="William's&lt;br&gt;Bubble Cell" style="rounded=1;whiteSpace=wrap;html=1;fillStyle=solid;fillColor=#fff2cc;strokeColor=none;fontColor=#B46504;shadow=1;" parent="1" vertex="1">
                    <mxGeometry x="380" width="120" height="60" as="geometry"/>
                </mxCell>
                <mxCell id="88" style="edgeStyle=none;html=1;entryX=0;entryY=0.5;entryDx=0;entryDy=0;endArrow=none;endFill=0;strokeColor=#FFF2CC;" parent="1" source="63" target="87" edge="1">
                    <mxGeometry relative="1" as="geometry"/>
                </mxCell>
                <mxCell id="63" value="Bedroom Oak" style="rounded=1;whiteSpace=wrap;html=1;fillStyle=solid;fillColor=#fff2cc;strokeColor=none;fontColor=#B46504;shadow=1;" parent="1" vertex="1">
                    <mxGeometry x="520" y="400" width="120" height="60" as="geometry"/>
                </mxCell>
                <mxCell id="68" style="edgeStyle=none;html=1;entryX=0.5;entryY=1;entryDx=0;entryDy=0;endArrow=none;endFill=0;strokeColor=#FFF2CC;" parent="1" target="67" edge="1">
                    <mxGeometry relative="1" as="geometry">
                        <mxPoint x="440" y="240" as="sourcePoint"/>
                    </mxGeometry>
                </mxCell>
                <mxCell id="69" style="edgeStyle=none;html=1;entryX=0.5;entryY=1;entryDx=0;entryDy=0;endArrow=none;endFill=0;strokeColor=#FFF2CC;" parent="1" source="67" target="60" edge="1">
                    <mxGeometry relative="1" as="geometry"/>
                </mxCell>
                <mxCell id="67" value="Enigmatic Quantum Realm" style="rounded=1;whiteSpace=wrap;html=1;fillStyle=solid;fillColor=#fff2cc;strokeColor=none;fontColor=#B46504;shadow=1;" parent="1" vertex="1">
                    <mxGeometry x="380" y="160" width="120" height="60" as="geometry"/>
                </mxCell>
                <mxCell id="71" style="edgeStyle=none;html=1;entryX=0.5;entryY=0;entryDx=0;entryDy=0;endArrow=none;endFill=0;strokeColor=#FFF2CC;" parent="1" source="70" target="57" edge="1">
                    <mxGeometry relative="1" as="geometry"/>
                </mxCell>
                <mxCell id="73" style="edgeStyle=none;html=1;entryX=1;entryY=0.5;entryDx=0;entryDy=0;endArrow=none;endFill=0;strokeColor=#FFF2CC;" parent="1" source="70" target="11" edge="1">
                    <mxGeometry relative="1" as="geometry"/>
                </mxCell>
                <mxCell id="70" value="Infirmary" style="rounded=1;whiteSpace=wrap;html=1;fillStyle=solid;fillColor=#fff2cc;strokeColor=none;fontColor=#B46504;shadow=1;" parent="1" vertex="1">
                    <mxGeometry x="800" y="320" width="120" height="60" as="geometry"/>
                </mxCell>
                <mxCell id="77" style="edgeStyle=none;html=1;entryX=0;entryY=0.5;entryDx=0;entryDy=0;endArrow=none;endFill=0;strokeColor=#FFF2CC;" parent="1" source="74" target="76" edge="1">
                    <mxGeometry relative="1" as="geometry"/>
                </mxCell>
                <mxCell id="74" value="Green Maze" style="rounded=1;whiteSpace=wrap;html=1;fillStyle=solid;fillColor=#fff2cc;strokeColor=none;fontColor=#B46504;shadow=1;" parent="1" vertex="1">
                    <mxGeometry x="520" y="560" width="120" height="60" as="geometry"/>
                </mxCell>
                <mxCell id="76" value="Cave of Chasms" style="rounded=1;whiteSpace=wrap;html=1;fillStyle=solid;fillColor=#fff2cc;strokeColor=none;fontColor=#B46504;shadow=1;" parent="1" vertex="1">
                    <mxGeometry x="660" y="560" width="120" height="60" as="geometry"/>
                </mxCell>
                <mxCell id="78" value="Lost in the Wastelands" style="rounded=1;whiteSpace=wrap;html=1;fillStyle=solid;fillColor=#fff2cc;strokeColor=none;fontColor=#B46504;shadow=1;" parent="1" vertex="1">
                    <mxGeometry x="-40" y="640" width="120" height="60" as="geometry"/>
                </mxCell>
                <mxCell id="80" value="History of Necromancy" style="rounded=1;whiteSpace=wrap;html=1;fillStyle=solid;fillColor=#e1d5e7;strokeColor=none;fontColor=#9673A6;shadow=1;" parent="1" vertex="1">
                    <mxGeometry x="-40" y="320" width="120" height="60" as="geometry"/>
                </mxCell>
                <mxCell id="82" value="Melancholy, the Singing Cat" style="rounded=1;whiteSpace=wrap;html=1;fillStyle=solid;fillColor=#f8cecc;strokeColor=none;fontColor=#B85450;shadow=1;" parent="1" vertex="1">
                    <mxGeometry x="940" y="720" width="120" height="60" as="geometry"/>
                </mxCell>
                <mxCell id="85" value="&lt;font&gt;Ghost of the&lt;br&gt;Cat Girl&lt;/font&gt;" style="rounded=1;whiteSpace=wrap;html=1;fillStyle=solid;fillColor=#f8cecc;strokeColor=none;fontColor=#B85450;shadow=1;" parent="1" vertex="1">
                    <mxGeometry x="-40" y="240" width="120" height="60" as="geometry"/>
                </mxCell>
                <mxCell id="87" value="Bokemin" style="rounded=1;whiteSpace=wrap;html=1;fillStyle=solid;fillColor=#f8cecc;strokeColor=none;fontColor=#B85450;shadow=1;" parent="1" vertex="1">
                    <mxGeometry x="660" y="400" width="120" height="60" as="geometry"/>
                </mxCell>
                <mxCell id="100" value="&lt;font style=&quot;font-size: 22px;&quot;&gt;Mortacion's Mansion of Trepidation&lt;/font&gt;" style="text;html=1;align=left;verticalAlign=middle;resizable=0;points=[];autosize=1;strokeColor=none;fillColor=none;fontSize=22;fontColor=#FFE6CC;fontStyle=1" parent="1" vertex="1">
                    <mxGeometry x="-40" y="-8" width="390" height="40" as="geometry"/>
                </mxCell>
                <mxCell id="90" value="" style="ellipse;whiteSpace=wrap;html=1;rounded=1;fillStyle=solid;strokeColor=none;fillColor=#ffe6cc;shadow=1;" parent="1" vertex="1">
                    <mxGeometry x="948" width="120" height="120" as="geometry"/>
                </mxCell>
                <mxCell id="91" value="" style="triangle;whiteSpace=wrap;html=1;rounded=1;fillStyle=solid;strokeColor=none;fontColor=#ffffff;fillColor=#FFB366;rotation=-90;" parent="1" vertex="1">
                    <mxGeometry x="993" y="-4" width="30" height="40" as="geometry"/>
                </mxCell>
                <mxCell id="93" value="." style="triangle;whiteSpace=wrap;html=1;rounded=1;fillStyle=solid;strokeColor=none;fontColor=#ffffff;fillColor=#FFB366;rotation=0;" parent="1" vertex="1">
                    <mxGeometry x="1035" y="40" width="30" height="40" as="geometry"/>
                </mxCell>
                <mxCell id="95" value="." style="triangle;whiteSpace=wrap;html=1;rounded=1;fillStyle=solid;strokeColor=none;fontColor=#ffffff;fillColor=#FFB366;rotation=-180;" parent="1" vertex="1">
                    <mxGeometry x="950" y="40" width="30" height="40" as="geometry"/>
                </mxCell>
                <mxCell id="97" value="" style="triangle;whiteSpace=wrap;html=1;rounded=1;fillStyle=solid;strokeColor=none;fontColor=#ffffff;fillColor=#FFB366;rotation=90;" parent="1" vertex="1">
                    <mxGeometry x="993" y="85" width="30" height="40" as="geometry"/>
                </mxCell>
                <mxCell id="104" value="S" style="text;html=1;align=center;verticalAlign=middle;resizable=0;points=[];autosize=1;strokeColor=none;fillColor=none;fontColor=#CC6600;fontStyle=1;fontSize=16;" parent="1" vertex="1">
                    <mxGeometry x="993" y="86" width="30" height="30" as="geometry"/>
                </mxCell>
                <mxCell id="105" value="E" style="text;html=1;align=center;verticalAlign=middle;resizable=0;points=[];autosize=1;strokeColor=none;fillColor=none;fontColor=#CC6600;fontStyle=1;fontSize=16;" parent="1" vertex="1">
                    <mxGeometry x="1030" y="45" width="30" height="30" as="geometry"/>
                </mxCell>
                <mxCell id="106" value="N" style="text;html=1;align=center;verticalAlign=middle;resizable=0;points=[];autosize=1;strokeColor=none;fillColor=none;fontColor=#CC6600;fontStyle=1;fontSize=16;" parent="1" vertex="1">
                    <mxGeometry x="988" y="5" width="40" height="30" as="geometry"/>
                </mxCell>
                <mxCell id="107" value="W" style="text;html=1;align=center;verticalAlign=middle;resizable=0;points=[];autosize=1;strokeColor=none;fillColor=none;fontColor=#CC6600;fontStyle=1;fontSize=16;" parent="1" vertex="1">
                    <mxGeometry x="950" y="45" width="40" height="30" as="geometry"/>
                </mxCell>
                <mxCell id="108" value="The Game starts here" style="text;html=1;strokeColor=none;fillColor=none;align=center;verticalAlign=middle;whiteSpace=wrap;rounded=0;shadow=1;fontColor=#D5E8D4;" parent="1" vertex="1">
                    <mxGeometry x="235" y="698" width="130" height="30" as="geometry"/>
                </mxCell>
            </root>
        </mxGraphModel>
    </diagram>
</mxfile>